<svg xmlns="http://www.w3.org/2000/svg" width="14" height="15" viewBox="0 0 14 15"><path fill="currentColor" d="M7.52456505,0.000264632552 C7.92974016,-0.00710218765 8.31355149,0.139497534 8.6001208,0.420173384 C8.88816346,0.692009049 9.04213001,1.06845356 9.04213001,1.46626185 C9.04213001,2.27661207 9.71251065,2.93299575 10.545698,2.93299575 C10.8028,2.93299575 11.0606387,2.85859087 11.2897468,2.73335493 C12.0035917,2.34954359 12.894977,2.59338534 13.3001521,3.27849962 L13.3001521,3.27849962 L13.8018325,4.14041758 C13.9270685,4.36142219 14,4.61189408 14,4.86973278 C14,5.39277702 13.7134307,5.87972383 13.249321,6.13682586 C13.0202129,6.2620618 12.8286756,6.45359913 12.6968095,6.67534041 C12.3056314,7.36708483 12.5494731,8.24299975 13.249321,8.64228141 C13.9557991,9.04671984 14.1989041,9.93147494 13.8018325,10.6305862 L13.8018325,10.6305862 L13.3001521,11.4637735 C13.0349466,11.9197797 12.5413696,12.2004556 12.0109585,12.2004556 C11.745753,12.2004556 11.4805475,12.1334175 11.2602796,12.0008147 C11.0238046,11.8755788 10.7667026,11.8019106 10.5081272,11.8019106 C10.1103189,11.8019106 9.72724429,11.9573505 9.4480418,12.236553 C9.15999913,12.509862 9.00529591,12.8848332 9.00529591,13.2752746 C9.00529591,14.078258 8.33565195,14.733905 7.50246459,14.733905 L7.50246459,14.733905 L6.4939469,14.733905 C6.09540193,14.733905 5.7196941,14.571835 5.44712175,14.2992626 C5.16718258,14.0193235 5.02058286,13.6509825 5.02058286,13.2679078 C5.02058286,12.4575576 4.35683236,11.8019106 3.52511836,11.8019106 C3.25180933,11.8019106 2.9866038,11.8755788 2.75823238,12.0162851 C2.41199183,12.2070857 1.9994499,12.2586534 1.61637525,12.1628848 C1.2333006,12.0597493 0.901793689,11.8092774 0.702889543,11.4777705 L0.702889543,11.4777705 L0.232149733,10.6453198 C0.0104084449,10.299816 -0.0558929369,9.88653734 0.0479792279,9.49609587 C0.150378029,9.1056544 0.416320238,8.77414749 0.776557745,8.57524334 C1.00566585,8.4500074 1.1964665,8.26583689 1.32906926,8.03746547 C1.71288059,7.34498437 1.46903884,6.47569959 0.776557745,6.07052448 C0.0767098267,5.67271618 -0.16639524,4.79606458 0.232149733,4.10358348 L0.232149733,4.10358348 L0.702889543,3.27849962 C0.901793689,2.93299575 1.2333006,2.68178718 1.62374207,2.5786517 C2.01492022,2.47551622 2.42672547,2.5337141 2.77296602,2.73335493 C3.00870427,2.85859087 3.26654297,2.92489225 3.52511836,2.92489225 C3.92292665,2.92489225 4.30526462,2.77018903 4.58520379,2.49761668 C4.86514296,2.22504433 5.02058286,1.8493365 5.02058286,1.46626185 C5.02058286,0.65591163 5.69022682,0.000264632552 6.5226775,0.000264632552 L6.5226775,0.000264632552 L7.52456505,0.000264632552 Z M7.81997454,5.51138282 C7.04645842,5.19387287 6.15433649,5.36330974 5.55762405,5.94528853 C4.96827844,6.51990051 4.78410793,7.39655211 5.10824802,8.14870445 C5.42575797,8.90675025 6.17643695,9.4003272 7.01625445,9.4003272 L7.01625445,9.4003272 L7.02435795,9.4003272 C7.57686947,9.40769402 8.09254688,9.19479292 8.48225167,8.81098159 C8.87269314,8.43527376 9.09369775,7.91959634 9.09369775,7.38181847 C9.10106457,6.56410143 8.59275398,5.82005259 7.81997454,5.51138282 Z"/></svg>