<svg xmlns="http://www.w3.org/2000/svg" width="347" height="118" viewBox="0 0 347 118"><g fill="#FFF" transform="translate(.231 .832)"><path d="M37.539 73.332C32.1716667 73.332 27.2085 72.4428333 22.6495 70.6645 18.0905 68.8861667 14.1135 66.3803333 10.7185 63.147 7.3235 59.9136667 4.68833333 56.1306667 2.813 51.798.937666667 47.4653333 0 42.7446667 0 37.636 0 32.4626667.986166667 27.7096667 2.9585 23.377 4.93083333 19.0443333 7.67916667 15.2775 11.2035 12.0765 14.7278333 8.8755 18.818 6.38583333 23.474 4.6075 28.13 2.82916667 33.1093333 1.94 38.412 1.94 44.814 1.94 50.5531667 3.03933333 55.6295 5.238 60.7058333 7.43666667 64.8283333 10.4113333 67.997 14.162L54.902 27.257C52.5093333 24.4763333 50.0196667 22.407 47.433 21.049 44.8463333 19.691 41.7423333 19.012 38.121 19.012 34.6936667 19.012 31.5896667 19.7718333 28.809 21.2915 26.0283333 22.8111667 23.8135 24.9613333 22.1645 27.742 20.5155 30.5226667 19.691 33.7883333 19.691 37.539 19.691 41.2896667 20.4508333 44.5715 21.9705 47.3845 23.4901667 50.1975 25.608 52.38 28.324 53.932 31.04 55.484 34.2086667 56.26 37.83 56.26 41.322 56.26 44.2643333 55.581 46.657 54.223 49.0496667 52.865 50.8765 50.925 52.1375 48.403 53.3985 45.881 54.029 42.9063333 54.029 39.479L67.318 47.918 35.211 46.948 35.211 31.428 73.526 31.428 73.526 34.338C73.526 42.6153333 72.0225 49.664 69.0155 55.484 66.0085 61.304 61.8051667 65.7336667 56.4055 68.773 51.0058333 71.8123333 44.717 73.332 37.539 73.332ZM103.693 73.332C98.455 73.332 93.7828333 72.2488333 89.6765 70.0825 85.5701667 67.9161667 82.3368333 64.9253333 79.9765 61.11 77.6161667 57.2946667 76.436 52.9943333 76.436 48.209 76.436 43.4236667 77.6 39.1556667 79.928 35.405 82.256 31.6543333 85.4731667 28.6958333 89.5795 26.5295 93.6858333 24.3631667 98.358 23.28 103.596 23.28 108.834 23.28 113.49 24.3631667 117.564 26.5295 121.638 28.6958333 124.855167 31.6543333 127.2155 35.405 129.575833 39.1556667 130.756 43.4236667 130.756 48.209 130.756 52.9943333 129.592 57.2946667 127.264 61.11 124.936 64.9253333 121.735 67.9161667 117.661 70.0825 113.587 72.2488333 108.931 73.332 103.693 73.332ZM103.596 56.648C105.212667 56.648 106.619167 56.3085 107.8155 55.6295 109.011833 54.9505 109.933333 53.9805 110.58 52.7195 111.226667 51.4585 111.55 49.9873333 111.55 48.306 111.55 46.6246667 111.2105 45.1535 110.5315 43.8925 109.8525 42.6315 108.931 41.6615 107.767 40.9825 106.603 40.3035 105.212667 39.964 103.596 39.964 102.044 39.964 100.669833 40.3196667 99.4735 41.031 98.2771667 41.7423333 97.3395 42.7285 96.6605 43.9895 95.9815 45.2505 95.642 46.7216667 95.642 48.403 95.642 50.0196667 95.9815 51.4585 96.6605 52.7195 97.3395 53.9805 98.2771667 54.9505 99.4735 55.6295 100.669833 56.3085 102.044 56.648 103.596 56.648Z"/><path d="M156.929,73.332 C151.691,73.332 147.018833,72.2488333 142.9125,70.0825 C138.806167,67.9161667 135.572833,64.9253333 133.2125,61.11 C130.852167,57.2946667 129.672,52.9943333 129.672,48.209 C129.672,43.4236667 130.836,39.1556667 133.164,35.405 C135.492,31.6543333 138.709167,28.6958333 142.8155,26.5295 C146.921833,24.3631667 151.594,23.28 156.832,23.28 C162.07,23.28 166.726,24.3631667 170.8,26.5295 C174.874,28.6958333 178.091167,31.6543333 180.4515,35.405 C182.811833,39.1556667 183.992,43.4236667 183.992,48.209 C183.992,52.9943333 182.828,57.2946667 180.5,61.11 C178.172,64.9253333 174.971,67.9161667 170.897,70.0825 C166.823,72.2488333 162.167,73.332 156.929,73.332 Z M156.832,56.648 C158.448667,56.648 159.855167,56.3085 161.0515,55.6295 C162.247833,54.9505 163.169333,53.9805 163.816,52.7195 C164.462667,51.4585 164.786,49.9873333 164.786,48.306 C164.786,46.6246667 164.4465,45.1535 163.7675,43.8925 C163.0885,42.6315 162.167,41.6615 161.003,40.9825 C159.839,40.3035 158.448667,39.964 156.832,39.964 C155.28,39.964 153.905833,40.3196667 152.7095,41.031 C151.513167,41.7423333 150.5755,42.7285 149.8965,43.9895 C149.2175,45.2505 148.878,46.7216667 148.878,48.403 C148.878,50.0196667 149.2175,51.4585 149.8965,52.7195 C150.5755,53.9805 151.513167,54.9505 152.7095,55.6295 C153.905833,56.3085 155.28,56.648 156.832,56.648 Z"/><path d="M184.353 72.168 184.353 22.504C184.353 18.3653333 185.258333 14.5985 187.069 11.2035 188.879667 7.8085 191.498667 5.0925 194.926 3.0555 198.353333 1.0185 202.492 0 207.342 0 210.963333 0 214.1805.582 216.9935 1.746 219.8065 2.91 222.150667 4.462 224.026 6.402L212.289 18.139C211.836333 17.6216667 211.254333 17.2498333 210.543 17.0235 209.831667 16.7971667 209.088 16.684 208.312 16.684 206.824667 16.684 205.628333 17.1366667 204.723 18.042 203.817667 18.9473333 203.365 20.1436667 203.365 21.631L203.365 72.168 184.353 72.168ZM174.653 39.964 174.653 24.444 216.46 24.444 216.46 39.964 174.653 39.964ZM241.015 72.168 222.197 24.444 242.373 24.444 253.431 65.087 245.089 65.087 255.953 24.444 276.032 24.444 257.311 72.071 241.015 72.168ZM230.636 92.538 244.507 61.207 257.311 72.071 249.26 92.538 230.636 92.538ZM70.802 116.332C64.9173333 116.332 59.7925 115.475167 55.4275 113.7615 51.0625 112.047833 47.037 109.315667 43.351 105.565L55.476 93.44C57.998 95.8326667 60.6493333 97.6595 63.43 98.9205 66.2106667 100.1815 69.1853333 100.812 72.354 100.812 75.0053333 100.812 77.01 100.407833 78.368 99.5995 79.726 98.7911667 80.405 97.6756667 80.405 96.253 80.405 94.8303333 79.823 93.6501667 78.659 92.7125 77.495 91.7748333 75.9591667 90.9341667 74.0515 90.1905 72.1438333 89.4468333 70.0421667 88.687 67.7465 87.911 65.4508333 87.135 63.1713333 86.1973333 60.908 85.098 58.6446667 83.9986667 56.5591667 82.6568333 54.6515 81.0725 52.7438333 79.4881667 51.208 77.5158333 50.044 75.1555 48.88 72.7951667 48.298 69.9013333 48.298 66.474 48.298 62.012 49.365 58.1643333 51.499 54.931 53.633 51.6976667 56.64 49.2241667 60.52 47.5105 64.4 45.7968333 68.959 44.94 74.197 44.94 79.3703333 44.94 84.1718333 45.7645 88.6015 47.4135 93.0311667 49.0625 96.701 51.4066667 99.611 54.446L87.389 66.571C85.255 64.5016667 83.121 62.9658333 80.987 61.9635 78.853 60.9611667 76.525 60.46 74.003 60.46 71.9983333 60.46 70.3978333 60.7833333 69.2015 61.43 68.0051667 62.0766667 67.407 63.0466667 67.407 64.34 67.407 65.698 67.989 66.8135 69.153 67.6865 70.317 68.5595 71.8528333 69.3516667 73.7605 70.063 75.6681667 70.7743333 77.7698333 71.518 80.0655 72.294 82.3611667 73.07 84.6406667 73.9915 86.904 75.0585 89.1673333 76.1255 91.2528333 77.4835 93.1605 79.1325 95.0681667 80.7815 96.604 82.8346667 97.768 85.292 98.932 87.7493333 99.514 90.724 99.514 94.216 99.514 101.264667 97.0081667 106.712833 91.9965 110.5605 86.9848333 114.408167 79.92 116.332 70.802 116.332ZM130.841081 116.332C125.279747 116.332 120.397414 115.281167 116.194081 113.1795 111.990747 111.077833 108.708914 108.1355 106.348581 104.3525 103.988247 100.5695 102.808081 96.2206667 102.808081 91.306 102.808081 86.456 103.955914 82.1556667 106.251581 78.405 108.547247 74.6543333 111.699747 71.6958333 115.709081 69.5295 119.718414 67.3631667 124.245081 66.28 129.289081 66.28 134.268414 66.28 138.665747 67.2985 142.481081 69.3355 146.296414 71.3725 149.287247 74.2016667 151.453581 77.823 153.619914 81.4443333 154.703081 85.583 154.703081 90.239 154.703081 91.209 154.654581 92.2275 154.557581 93.2945 154.460581 94.3615 154.250414 95.6063333 153.927081 97.029L110.859081 97.32 110.859081 85.68 146.846081 85.389 138.019081 90.53C138.019081 87.9433333 137.711914 85.8255 137.097581 84.1765 136.483247 82.5275 135.561747 81.2826667 134.333081 80.442 133.104414 79.6013333 131.552414 79.181 129.677081 79.181 127.737081 79.181 126.055747 79.666 124.633081 80.636 123.210414 81.606 122.127247 82.9963333 121.383581 84.807 120.639914 86.6176667 120.268081 88.8163333 120.268081 91.403 120.268081 94.0543333 120.672247 96.2691667 121.480581 98.0475 122.288914 99.8258333 123.469081 101.167667 125.021081 102.073 126.573081 102.978333 128.513081 103.431 130.841081 103.431 133.104414 103.431 135.092914 103.059167 136.806581 102.3155 138.520247 101.571833 140.088414 100.391667 141.511081 98.775L151.017081 108.184C148.624414 110.9 145.746747 112.937 142.384081 114.295 139.021414 115.653 135.173747 116.332 130.841081 116.332Z"/><path d="M173.719162 116.138C169.257162 116.138 165.312495 115.071 161.885162 112.937 158.457828 110.803 155.774162 107.876833 153.834162 104.1585 151.894162 100.440167 150.924162 96.156 150.924162 91.306 150.924162 86.456 151.894162 82.1556667 153.834162 78.405 155.774162 74.6543333 158.457828 71.7281667 161.885162 69.6265 165.312495 67.5248333 169.257162 66.474 173.719162 66.474 176.499828 66.474 179.070328 66.9428333 181.430662 67.8805 183.790995 68.8181667 185.763328 70.1276667 187.347662 71.809 188.931995 73.4903333 189.950495 75.4303333 190.403162 77.629L190.403162 104.983C189.950495 107.181667 188.931995 109.121667 187.347662 110.803 185.763328 112.484333 183.790995 113.793833 181.430662 114.7315 179.070328 115.669167 176.499828 116.138 173.719162 116.138ZM177.987162 99.454C180.379828 99.454 182.303662 98.6941667 183.758662 97.1745 185.213662 95.6548333 185.941162 93.6986667 185.941162 91.306 185.941162 89.6893333 185.617828 88.2828333 184.971162 87.0865 184.324495 85.8901667 183.402995 84.9363333 182.206662 84.225 181.010328 83.5136667 179.636162 83.158 178.084162 83.158 176.532162 83.158 175.157995 83.5136667 173.961662 84.225 172.765328 84.9363333 171.811495 85.9063333 171.100162 87.135 170.388828 88.3636667 170.033162 89.754 170.033162 91.306 170.033162 92.858 170.372662 94.2483333 171.051662 95.477 171.730662 96.7056667 172.684495 97.6756667 173.913162 98.387 175.141828 99.0983333 176.499828 99.454 177.987162 99.454ZM185.359162 115.168 185.359162 102.364 187.978162 90.724 185.359162 79.181 185.359162 67.444 203.886162 67.444 203.886162 115.168 185.359162 115.168ZM206.412243 115.168 206.412243 67.444 225.424243 67.444 225.424243 115.168 206.412243 115.168ZM225.424243 89.366 216.597243 81.509C219.054576 76.3356667 221.915824 72.5365 225.180985 70.1115 228.446146 67.6865 232.536566 66.474 237.452243 66.474 239.650909 66.474 241.542409 66.7326667 243.126743 67.25 244.711076 67.7673333 245.988243 68.511 246.958243 69.481L236.288243 84.613C235.835576 84.0956667 235.169206 83.6591667 234.289133 83.3035 233.409061 82.9478333 232.394097 82.77 231.244243 82.77 229.304243 82.77 227.849243 83.3439167 226.879243 84.49175 225.909243 85.6395833 225.424243 87.2643333 225.424243 89.366ZM272.077324 116.332C266.90399 116.332 262.24799 115.265 258.109324 113.131 253.970657 110.997 250.70499 108.0385 248.312324 104.2555 245.919657 100.4725 244.723324 96.1883333 244.723324 91.403 244.723324 86.553 245.935824 82.2365 248.360824 78.4535 250.785824 74.6705 254.083824 71.6958333 258.254824 69.5295 262.425824 67.3631667 267.130324 66.28 272.368324 66.28 276.11899 66.28 279.497824 66.862 282.504824 68.026 285.511824 69.19 288.308657 70.9683333 290.895324 73.361L278.964324 85.292C278.123657 84.516 277.18599 83.934 276.151324 83.546 275.116657 83.158 273.855657 82.964 272.368324 82.964 270.816324 82.964 269.409824 83.3035 268.148824 83.9825 266.887824 84.6615 265.869324 85.6153333 265.093324 86.844 264.317324 88.0726667 263.929324 89.5276667 263.929324 91.209 263.929324 92.8903333 264.317324 94.3615 265.093324 95.6225 265.869324 96.8835 266.90399 97.8696667 268.197324 98.581 269.490657 99.2923333 270.88099 99.648 272.368324 99.648 274.049657 99.648 275.43999 99.3893333 276.539324 98.872 277.638657 98.3546667 278.608657 97.6433333 279.449324 96.738L291.380324 108.669C288.599657 111.255667 285.689657 113.1795 282.650324 114.4405 279.61099 115.7015 276.086657 116.332 272.077324 116.332ZM326.878404 115.168 326.878404 88.396C326.878404 86.5206667 326.344904 85.0818333 325.277904 84.0795 324.210904 83.0771667 322.869071 82.576 321.252404 82.576 320.153071 82.576 319.166904 82.8023333 318.293904 83.255 317.420904 83.7076667 316.741904 84.3705 316.256904 85.2435 315.771904 86.1165 315.529404 87.1673333 315.529404 88.396L308.157404 85.098C308.157404 81.218 308.949571 77.8876667 310.533904 75.107 312.118238 72.3263333 314.316904 70.1923333 317.129904 68.705 319.942904 67.2176667 323.224738 66.474 326.975404 66.474 330.855404 66.474 334.218071 67.2338333 337.063404 68.7535 339.908738 70.2731667 342.091238 72.3425 343.610904 74.9615 345.130571 77.5805 345.890404 80.6036667 345.890404 84.031L345.890404 115.168 326.878404 115.168ZM296.517404 115.168 296.517404 44.164 315.529404 44.164 315.529404 115.168 296.517404 115.168Z"/></g></svg>