<svg xmlns="http://www.w3.org/2000/svg" width="14" height="15" viewBox="0 0 14 15"><path fill="currentColor" d="M3.48064806,7.46852279 L8.58103,2.428571 C9.13965667,1.87326874 9.13965667,0.97643482 8.58103,0.421132569 C8.31049853,0.151605272 7.94223963,0 7.55807204,0 C7.17390445,0 6.80564554,0.151605272 6.53511408,0.421132569 L0.426182042,6.457685 C0.153423052,6.72501116 0,7.08890688 0,7.46852279 C0,7.8481387 0.153423052,8.21203441 0.426182042,8.47936058 L6.53511408,14.5870988 C6.8070175,14.8535991 7.17510686,15.0021641 7.55807204,15 C7.94103722,15.0021641 8.30912657,14.8535991 8.58103,14.5870988 C9.13965667,14.0317965 9.13965667,13.1349626 8.58103,12.5796603 L3.48064806,7.46852279 Z" transform="translate(2)"/></svg>